<?xml version="1.0" standalone="no"?>
<!DOCTYPE svg PUBLIC "-//W3C//DTD SVG 1.1//EN"
"http://www.w3.org/Graphics/SVG/1.1/DTD/svg11.dtd">

<svg width="450" height="154" view_box="0 0 450 154"
xmlns="http://www.w3.org/2000/svg"
xmlns:link="http://www.w3.org/1999/xlink">\n\n<desc>Généré par Mocodo 2.3.7 le Fri, 18 Jun 2021 07:35:22</desc>

<rect id="frame" x="0" y="0" width="450" height="154" fill="#f7f7f7" stroke="none" stroke-width="0"/>

<!-- Association belongs to -->
<line x1="401" y1="77" x2="226" y2="77" stroke="#5aae61" stroke-width="2"/>
<text x="334" y="94.0" fill="#762a83" font-family="Verdana" font-size="12">0,N</text>
<line x1="50" y1="77" x2="226" y2="77" stroke="#5aae61" stroke-width="2"/>
<text x="96" y="94.0" fill="#762a83" font-family="Verdana" font-size="12">1,1</text>
<g id="association-belongs to">
	<path d="M 251 52 a 14 14 90 0 1 14 14 V 77 h -78 V 66 a 14 14 90 0 1 14 -14" fill="#a6dba0" stroke="#a6dba0" stroke-width="0"/>
	<path d="M 265 77.0 v 11 a 14 14 90 0 1 -14 14 H 201 a 14 14 90 0 1 -14 -14 V 77.0 H 78" fill="#d9f0d3" stroke="#d9f0d3" stroke-width="0"/>
	<rect x="187" y="52" width="78" height="50" fill="none" rx="14" stroke="#5aae61" stroke-width="2"/>
	<line x1="187" y1="77" x2="265" y2="77" stroke="#5aae61" stroke-width="1"/>
	<text x="194" y="69.7" fill="#000000" font-family="Verdana" font-size="12">belongs to</text>
</g>

<!-- Entity CATEGORY -->
<g id="entity-CATEGORY">
	<g id="frame-CATEGORY">
		<rect x="361" y="26" width="80" height="25" fill="#c2a5cf" stroke="#c2a5cf" stroke-width="0"/>
		<rect x="361" y="51.0" width="80" height="77" fill="#e7d4e8" stroke="#e7d4e8" stroke-width="0"/>
		<rect x="361" y="26" width="80" height="102" fill="none" stroke="#9970ab" stroke-width="2"/>
		<line x1="361" y1="51" x2="441" y2="51" stroke="#9970ab" stroke-width="1"/>
	</g>
	<text x="367" y="43.7" fill="#000000" font-family="Verdana" font-size="12">CATEGORY</text>
	<text x="366" y="68.7" fill="#000000" font-family="Verdana" font-size="12">name</text>
	<line x1="366" y1="71" x2="401" y2="71" stroke="#000000" stroke-width="1"/>
	<text x="366" y="85.8" fill="#000000" font-family="Verdana" font-size="12">status</text>
	<text x="366" y="102.8" fill="#000000" font-family="Verdana" font-size="12">created_at</text>
	<text x="366" y="119.8" fill="#000000" font-family="Verdana" font-size="12">updated_at</text>
</g>

<!-- Entity TASK -->
<g id="entity-TASK">
	<g id="frame-TASK">
		<rect x="9" y="9" width="82" height="25" fill="#c2a5cf" stroke="#c2a5cf" stroke-width="0"/>
		<rect x="9" y="34.0" width="82" height="111" fill="#e7d4e8" stroke="#e7d4e8" stroke-width="0"/>
		<rect x="9" y="9" width="82" height="136" fill="none" stroke="#9970ab" stroke-width="2"/>
		<line x1="9" y1="34" x2="91" y2="34" stroke="#9970ab" stroke-width="1"/>
	</g>
	<text x="33" y="26.7" fill="#000000" font-family="Verdana" font-size="12">TASK</text>
	<text x="14" y="51.7" fill="#000000" font-family="Verdana" font-size="12">title</text>
	<line x1="14" y1="54" x2="38" y2="54" stroke="#000000" stroke-width="1"/>
	<text x="14" y="68.7" fill="#000000" font-family="Verdana" font-size="12">completion</text>
	<text x="14" y="85.8" fill="#000000" font-family="Verdana" font-size="12">category_id</text>
	<text x="14" y="102.8" fill="#000000" font-family="Verdana" font-size="12">status</text>
	<text x="14" y="119.8" fill="#000000" font-family="Verdana" font-size="12">created_at</text>
	<text x="14" y="136.8" fill="#000000" font-family="Verdana" font-size="12">updated_at</text>
</g>
</svg>